HIERARCHY
ROOT Pelvis
{
	OFFSET 0.000000 0.000000 0.000000
	CHANNELS 6 Xposition Yposition Zposition Zrotation Yrotation Xrotation 
	JOINT Left_hip
	{
		OFFSET 0.076090 -0.089427 -0.010735
		CHANNELS 3 Zrotation Yrotation Xrotation
		JOINT Left_knee
		{
			OFFSET 0.030200 -0.359518 -0.003501
			CHANNELS 3 Zrotation Yrotation Xrotation
			JOINT Left_ankle
			{
				OFFSET -0.011005 -0.371022 -0.045888
				CHANNELS 3 Zrotation Yrotation Xrotation
				JOINT Left_foot
				{
					OFFSET 0.023930 -0.052103 0.111084
					CHANNELS 3 Zrotation Yrotation Xrotation
					End Site
					{
						OFFSET 0.000000 0.000000 0.000000
					}
				}
			}
		}
	}
	JOINT Right_hip
	{
		OFFSET -0.073836 -0.088112 -0.007709
		CHANNELS 3 Zrotation Yrotation Xrotation
		JOINT Right_knee
		{
			OFFSET -0.035715 -0.367809 -0.006536
			CHANNELS 3 Zrotation Yrotation Xrotation
			JOINT Right_ankle
			{
				OFFSET 0.013718 -0.371958 -0.043815
				CHANNELS 3 Zrotation Yrotation Xrotation
				JOINT Right_foot
				{
					OFFSET -0.021936 -0.046387 0.114542
					CHANNELS 3 Zrotation Yrotation Xrotation
					End Site
					{
						OFFSET 0.000000 0.000000 0.000000
					}
				}
			}
		}
	}
	JOINT Spine1
	{
		OFFSET -0.001865 0.102064 -0.019455
		CHANNELS 3 Zrotation Yrotation Xrotation
		JOINT Spine2
		{
			OFFSET 0.003082 0.129260 -0.001938
			CHANNELS 3 Zrotation Yrotation Xrotation
			JOINT Spine3
			{
				OFFSET 0.001104 0.048093 0.026561
				CHANNELS 3 Zrotation Yrotation Xrotation
				JOINT Neck
				{
					OFFSET -0.002010 0.204222 -0.047183
					CHANNELS 3 Zrotation Yrotation Xrotation
					JOINT Head
					{
						OFFSET 0.005050 0.063649 0.048489
						CHANNELS 3 Zrotation Yrotation Xrotation
						End Site
						{
							OFFSET 0.000000 0.000000 0.000000
						}
					}
				}
				JOINT Left_collar
				{
					OFFSET 0.072979 0.114065 -0.031633
					CHANNELS 3 Zrotation Yrotation Xrotation
					JOINT Left_shoulder
					{
						OFFSET 0.083419 0.032092 -0.006530
						CHANNELS 3 Zrotation Yrotation Xrotation
						JOINT Left_elbow
						{
							OFFSET 0.239393 -0.012014 -0.025060
							CHANNELS 3 Zrotation Yrotation Xrotation
							JOINT Left_wrist
							{
								OFFSET 0.227297 0.008116 0.000384
								CHANNELS 3 Zrotation Yrotation Xrotation
								JOINT Left_palm
								{
									OFFSET 0.074607 -0.009248 -0.012277
									CHANNELS 3 Zrotation Yrotation Xrotation
									End Site
									{
										OFFSET 0.000000 0.000000 0.000000
									}
								}
							}
						}
					}
				}
				JOINT Right_collar
				{
					OFFSET -0.074980 0.111880 -0.037894
					CHANNELS 3 Zrotation Yrotation Xrotation
					JOINT Right_shoulder
					{
						OFFSET -0.087565 0.034353 -0.009323
						CHANNELS 3 Zrotation Yrotation Xrotation
						JOINT Right_elbow
						{
							OFFSET -0.236838 -0.013719 -0.019794
							CHANNELS 3 Zrotation Yrotation Xrotation
							JOINT Right_wrist
							{
								OFFSET -0.235053 0.006433 -0.003853
								CHANNELS 3 Zrotation Yrotation Xrotation
								JOINT Right_palm
								{
									OFFSET -0.075499 -0.006894 -0.009792
									CHANNELS 3 Zrotation Yrotation Xrotation
									End Site
									{
										OFFSET 0.000000 0.000000 0.000000
									}
								}
							}
						}
					}
				}
			}
		}
	}
}
MOTION
Frames: 13
Frame Time: 0.100000
0.364685 0.438020 -0.886176 177.059907 27.585506 -47.335969 13.099359 4.032801 -35.906721 -1.616457 7.150793 51.418111 -8.437371 1.884394 24.861919 10.276883 17.760285 -15.877291 -10.917258 1.719034 -57.776889 -1.426964 -14.084457 125.188912 1.188783 10.991837 8.470574 11.429553 -15.878583 -20.321295 -3.312095 5.124928 34.952534 4.862836 -0.775394 12.487281 0.598409 0.358527 -7.267612 -2.836862 4.790063 -6.958209 -3.160366 -16.451106 -6.354100 -9.406900 -37.304463 -0.065510 -68.251514 -29.565032 20.180374 13.011289 -8.312528 4.084401 -6.318029 5.623963 23.259429 -17.090591 -3.368860 -34.583161 6.503405 34.959167 -3.023222 78.232326 34.245180 30.741636 -152.148038 37.109992 -122.621089 16.899142 17.932606 -53.983572 8.883350 2.936431 -7.434184 
0.357591 0.432090 -0.878913 176.085837 27.297307 -45.853348 13.615194 5.677696 -34.427961 -0.990429 7.221688 46.610997 -10.519694 3.253003 25.709108 14.180214 17.610495 -16.046319 -9.271809 2.955633 -56.170140 1.175778 -13.804556 127.894085 1.543930 13.082595 4.647772 7.387102 -14.852648 -20.697830 -3.285470 4.831663 33.269001 5.402249 -1.135902 13.651539 0.906118 0.650420 -7.487161 -1.429994 5.035865 -8.282427 -1.874522 -18.146799 -6.907711 -8.003447 -37.739564 -0.666821 -70.286854 -27.039625 20.580303 13.675572 -9.392800 5.597291 -5.393423 5.774361 23.834579 -18.246241 -4.337570 -36.766257 4.867724 35.561173 -3.508210 78.580092 34.536293 28.990668 -152.839700 36.648807 -122.931914 16.734364 18.677052 -55.185605 10.373577 2.804892 -8.623854 
0.347692 0.430000 -0.875545 174.993380 27.424792 -46.053784 13.188840 7.290742 -30.792167 -3.206846 5.254263 43.765130 -8.130908 -0.211598 15.402892 13.510665 17.944951 -13.433952 -10.176399 2.055420 -57.540977 2.046784 -13.586559 128.782152 5.010985 12.993976 9.193953 6.300375 -13.539478 -21.689287 -3.104659 3.920013 33.879037 6.087258 -1.431503 14.325860 1.374146 0.355406 -7.669204 0.435967 4.728718 -8.978123 -1.213981 -17.961798 -8.061680 -8.867606 -37.996167 0.187700 -68.821232 -26.734389 18.258533 13.559778 -8.706758 4.118210 -5.554858 5.627226 23.400782 -18.896526 -5.401781 -37.149053 5.147335 35.952430 -3.575626 78.503164 34.753641 28.765885 -152.917702 36.402369 -123.911280 18.004655 19.204916 -55.059836 11.472708 3.819140 -8.805088 
0.346524 0.432353 -0.875739 174.497106 27.434346 -46.439915 13.756245 7.823115 -32.165953 -3.337587 5.895965 45.309569 -9.527201 0.005167 17.881752 14.677315 18.533260 -13.858329 -10.730935 1.329876 -57.413077 1.740750 -13.263920 131.710089 5.810448 12.204196 11.195596 5.479527 -13.245317 -23.410286 -2.993335 4.326234 35.779840 6.824332 -1.790256 15.264247 1.986945 0.435607 -7.592416 0.902200 4.725509 -10.357562 0.048273 -18.673212 -9.794877 -6.697350 -38.609636 -0.992746 -68.631410 -27.762478 18.055685 14.114473 -9.349592 3.507573 -3.870668 5.057176 22.270844 -18.311595 -5.237247 -36.560407 4.310008 36.183344 -4.179767 78.670764 34.429173 28.556827 -153.747750 35.284784 -123.891626 16.929083 18.241597 -53.465313 11.179225 3.782409 -9.080579 
0.349529 0.434782 -0.878425 174.299695 27.238390 -46.405815 13.832551 8.202655 -31.522171 -3.364494 5.602272 43.780456 -9.720922 -0.025203 17.103150 15.264891 19.238358 -13.008164 -10.808535 0.070146 -56.089979 1.564063 -13.637914 131.174261 5.874492 11.603406 9.715372 4.270597 -12.039494 -23.565092 -3.096747 4.927925 37.610671 7.171552 -2.070991 16.207984 2.496025 0.435984 -7.550352 1.310244 5.290710 -11.483972 0.267141 -20.134682 -9.955272 -5.614117 -39.087290 -1.812952 -67.413165 -28.583287 17.193117 13.671636 -9.555294 2.334334 -3.092641 4.780977 21.344766 -17.628584 -4.974481 -35.531564 4.765742 36.754174 -4.355200 78.327323 33.939973 28.503553 -154.479972 35.350575 -125.063199 16.068952 17.740543 -52.501273 11.343686 3.979656 -9.224995 
0.350784 0.434959 -0.879556 174.558621 26.684947 -46.313355 14.169589 8.910295 -31.298687 -3.511095 5.382948 43.788196 -10.164244 -0.048504 17.221367 15.575307 19.754852 -13.336496 -11.019306 -1.077955 -55.179021 1.996148 -13.744229 130.747805 5.937223 12.295502 8.743347 4.158543 -12.247050 -23.760667 -2.848260 5.163930 39.062746 6.900185 -1.971054 16.505409 2.531146 0.580548 -7.311350 1.011991 5.518306 -11.398515 0.172930 -20.549987 -9.616225 -4.356701 -39.044023 -2.779705 -67.817726 -28.755887 17.470523 14.075701 -10.378371 3.518384 -1.949170 4.178097 21.646198 -17.627511 -4.614720 -35.236494 3.905170 36.811214 -4.798113 78.229355 33.561305 27.902979 -154.820320 35.462178 -125.375876 15.233886 17.570438 -52.380025 11.560048 3.972293 -9.476662 
0.350351 0.434864 -0.877454 174.682118 26.212133 -46.205719 14.538800 9.411415 -31.292301 -3.613147 5.328138 44.243710 -10.129450 -0.117304 16.906673 15.552680 19.734980 -13.165415 -11.141124 -1.703001 -54.952597 2.056002 -13.903803 130.769184 6.203580 12.581821 9.155774 4.266397 -12.235917 -23.797542 -2.947447 5.214796 39.580784 6.923980 -2.102986 16.496587 2.611965 0.517136 -7.258082 0.787401 5.961470 -10.856067 -0.216254 -20.193074 -9.017100 -4.112701 -38.944288 -2.846164 -67.102057 -28.692176 16.967482 13.874628 -10.462112 3.621584 -1.463288 3.973137 21.615414 -17.801135 -4.684138 -35.285165 3.940219 36.718378 -4.852992 77.896713 33.698795 27.681020 -154.671771 35.733550 -125.568883 15.041053 17.515449 -52.399063 11.850253 4.086288 -9.558312 
0.349292 0.434952 -0.875695 175.017923 25.874862 -45.956917 14.544443 9.308778 -31.314973 -3.551644 5.184239 44.616118 -9.468308 -0.077134 16.492681 14.837909 19.907559 -13.131983 -11.159480 -1.675430 -55.429427 1.956809 -13.899672 131.011517 6.209246 12.550804 10.142118 4.886920 -12.336693 -23.849665 -2.986940 5.116379 39.993948 6.720442 -1.936867 16.276799 2.496690 0.487183 -7.176383 0.793642 5.795614 -10.963540 0.036128 -19.974740 -9.624957 -4.518630 -38.529223 -2.721950 -66.562049 -28.803736 16.612408 13.931440 -10.708746 3.004394 -1.086808 3.893736 21.318233 -17.689308 -4.693083 -34.958049 4.192127 36.286369 -4.896775 77.880351 33.492239 27.902307 -154.963181 35.899514 -125.897957 14.690888 17.215832 -52.101265 11.934839 4.247090 -9.484514 
0.348912 0.434955 -0.876097 175.282877 25.658127 -45.746468 14.416691 8.941084 -31.327342 -3.352235 5.156726 44.543195 -9.139070 0.223024 16.529808 14.720703 19.935377 -13.058770 -11.131849 -1.461897 -55.791522 1.815870 -13.937640 131.089076 6.061660 12.354327 10.420270 4.906626 -12.358642 -23.671467 -2.910777 5.019888 40.092320 6.667811 -1.856594 16.294739 2.468045 0.564141 -7.219070 0.676912 5.695430 -11.029476 0.169909 -19.968236 -10.066931 -4.483961 -38.715502 -2.730678 -66.157933 -28.823594 16.608650 13.582402 -11.090753 2.814496 -2.707991 4.328694 20.374715 -17.592673 -4.675139 -34.864421 4.039895 36.549210 -4.900261 77.701040 33.793723 27.944212 -154.784648 35.684457 -125.856380 15.247069 17.213081 -52.136216 12.031385 4.335661 -9.632069 
0.348768 0.435419 -0.877253 175.415772 25.709097 -45.909008 14.180437 8.800393 -31.048738 -3.300107 5.009741 44.301825 -8.978715 0.395448 16.748043 14.654516 20.132515 -13.170198 -11.189112 -1.607222 -55.742468 1.759817 -13.950121 131.078590 5.763349 12.020293 10.666287 4.870993 -12.203417 -23.647433 -2.621657 4.654003 40.157317 6.682309 -1.939542 16.307730 2.521172 0.514437 -7.129946 0.372554 5.430119 -10.872393 0.197711 -19.753871 -10.739260 -4.258357 -38.621309 -2.701242 -65.485041 -28.846193 16.093298 12.963573 -11.386384 2.057597 -4.577292 5.085657 18.501174 -17.466390 -4.652084 -34.473972 3.661869 36.538513 -5.070295 77.651207 34.004766 28.027718 -154.531139 35.556071 -126.075050 15.825591 16.886294 -52.033953 12.241427 4.555640 -9.776585 
0.350000 0.436346 -0.878000 175.622435 25.848532 -46.237808 14.081707 9.003820 -30.602214 -3.340607 5.019357 44.135620 -9.253997 0.470094 16.868836 14.737717 19.740931 -13.116573 -11.234404 -1.533268 -55.751134 1.645989 -13.855965 131.171357 5.674897 11.873456 11.300732 5.281551 -12.313162 -23.777201 -2.545434 4.341202 40.279226 6.792768 -2.056810 16.113405 2.613704 0.420706 -7.017879 0.153788 4.691972 -10.678873 0.434751 -19.801363 -11.149409 -4.340274 -38.150242 -2.440388 -64.980937 -28.468019 15.504600 12.822706 -11.616855 0.699700 -3.996381 4.734255 17.032390 -17.392457 -4.634086 -33.997409 3.682947 36.298114 -5.124568 77.719443 33.948856 28.203100 -154.578273 35.456248 -126.431010 15.297906 16.542262 -51.913202 12.053352 4.635131 -9.596428 
0.351542 0.437079 -0.878668 176.000058 25.932304 -46.650601 13.888187 8.892633 -29.866272 -3.317339 4.926628 43.768285 -9.470338 0.712056 17.160414 14.711529 19.657959 -13.105563 -11.087748 -0.989394 -55.620771 1.584061 -13.687973 131.222188 5.450180 11.514776 11.597436 5.645802 -12.171132 -23.666158 -2.595169 4.042307 40.488586 6.681694 -2.126500 16.152636 2.525548 0.234067 -6.983052 0.276888 3.906045 -10.637091 0.672257 -20.112283 -11.421068 -5.091994 -37.944096 -1.932101 -64.425655 -28.224957 15.156089 13.080243 -11.728154 -0.352885 -3.117382 4.448301 16.830830 -17.207583 -4.563957 -33.935519 3.916692 36.184144 -5.220500 77.619870 33.604985 28.341503 -154.477686 35.321273 -126.675832 14.509314 16.294747 -52.157149 11.818810 4.557139 -9.367230 
0.353095 0.437671 -0.878895 176.456691 25.961858 -47.057774 13.683031 8.531825 -29.135083 -3.146397 4.891314 43.537755 -9.447302 1.023613 17.397116 14.478120 19.520436 -13.117991 -11.012184 -0.335301 -55.407332 1.501639 -13.476444 131.277363 5.363605 11.442374 11.837320 5.974400 -12.310564 -23.506808 -2.628269 3.843637 40.691959 6.518484 -2.179523 16.289866 2.348714 0.155582 -7.105398 0.135633 3.072360 -10.440705 0.760697 -20.739871 -11.572852 -5.598408 -38.052365 -1.689833 -64.215371 -28.113294 15.217502 13.314561 -11.853775 -0.055444 -3.519524 4.485469 17.582545 -17.071596 -4.542718 -34.177267 4.052107 36.306433 -5.265244 77.320530 33.495639 28.110847 -154.251068 35.046897 -126.222539 14.058351 16.003180 -51.538982 11.866975 4.606289 -9.441447 
